<?xml version="1.0" standalone="no"?><svg xmlns="http://www.w3.org/2000/svg" viewBox="0 0 1440 320"><path fill="#ebf4ff" fill-opacity="1" d="M0,64L30,96C60,128,120,192,180,181.3C240,171,300,85,360,69.3C420,53,480,107,540,144C600,181,660,203,720,208C780,213,840,203,900,181.3C960,160,1020,128,1080,144C1140,160,1200,224,1260,250.7C1320,277,1380,267,1410,261.3L1440,256L1440,0L1410,0C1380,0,1320,0,1260,0C1200,0,1140,0,1080,0C1020,0,960,0,900,0C840,0,780,0,720,0C660,0,600,0,540,0C480,0,420,0,360,0C300,0,240,0,180,0C120,0,60,0,30,0L0,0Z"></path></svg>